<?xml version="1.0" encoding="UTF-8" standalone="no"?>
<svg
   viewBox="0 0 512 512"
   version="1.1"
   id="svg4"
   sodipodi:docname="arrows-up-down.svg"
   inkscape:version="1.1.2 (b8e25be833, 2022-02-05)"
   xmlns:inkscape="http://www.inkscape.org/namespaces/inkscape"
   xmlns:sodipodi="http://sodipodi.sourceforge.net/DTD/sodipodi-0.dtd"
   xmlns="http://www.w3.org/2000/svg"
   xmlns:svg="http://www.w3.org/2000/svg">
  <defs
     id="defs8" />
  <sodipodi:namedview
     id="namedview6"
     pagecolor="#ffffff"
     bordercolor="#666666"
     borderopacity="1.0"
     inkscape:pageshadow="2"
     inkscape:pageopacity="0.0"
     inkscape:pagecheckerboard="0"
     showgrid="false"
     inkscape:zoom="0.93164062"
     inkscape:cx="256"
     inkscape:cy="428.27673"
     inkscape:window-width="1360"
     inkscape:window-height="705"
     inkscape:window-x="-8"
     inkscape:window-y="-8"
     inkscape:window-maximized="1"
     inkscape:current-layer="svg4" />
  <!--! Font Awesome Pro 6.2.1 by @fontawesome - https://fontawesome.com License - https://fontawesome.com/license (Commercial License) Copyright 2022 Fonticons, Inc. -->
  <path
     d="m 137.35,406.65 96,96 c 12.5,12.5 32.8,12.5 45.3,0 l 96,-96 c 12.5,-12.5 12.5,-32.8 0,-45.3 -12.5,-12.5 -32.8,-12.5 -45.3,0 l -41.4,41.4 v -293.5 l 41.4,41.4 c 12.5,12.5 32.8,12.5 45.3,0 12.5,-12.5 12.5,-32.8 0,-45.3 l -96,-96 c -12.5,-12.5 -32.8,-12.5 -45.3,0 l -96,96 c -12.5,12.5 -12.5,32.8 0,45.3 12.5,12.5 32.8,12.5 45.3,0 l 41.3,-41.3 v 293.5 l -41.4,-41.4 c -12.5,-12.5 -32.8,-12.5 -45.3,0 -12.5,12.5 -12.5,32.8 0,45.3 z"
     id="path2" />
</svg>
