<?xml version="1.0" encoding="UTF-8" standalone="no"?>
<svg
   viewBox="0 0 478.72537 478.72537"
   version="1.1"
   id="svg4"
   sodipodi:docname="xmark-solid.svg"
   width="478.72537"
   height="478.72537"
   inkscape:version="1.1.2 (b8e25be833, 2022-02-05)"
   xmlns:inkscape="http://www.inkscape.org/namespaces/inkscape"
   xmlns:sodipodi="http://sodipodi.sourceforge.net/DTD/sodipodi-0.dtd"
   xmlns="http://www.w3.org/2000/svg"
   xmlns:svg="http://www.w3.org/2000/svg">
  <defs
     id="defs8" />
  <sodipodi:namedview
     id="namedview6"
     pagecolor="#ffffff"
     bordercolor="#666666"
     borderopacity="1.0"
     inkscape:pageshadow="2"
     inkscape:pageopacity="0.0"
     inkscape:pagecheckerboard="0"
     showgrid="false"
     fit-margin-top="0"
     fit-margin-left="0"
     fit-margin-right="0"
     fit-margin-bottom="0"
     inkscape:zoom="0.93164062"
     inkscape:cx="122.36478"
     inkscape:cy="240.43606"
     inkscape:window-width="1360"
     inkscape:window-height="705"
     inkscape:window-x="-8"
     inkscape:window-y="-8"
     inkscape:window-maximized="1"
     inkscape:current-layer="svg4" />
  <rect
     style="fill:none;stroke:#ffffff;stroke-width:0;stroke-linecap:square;stroke-linejoin:round;paint-order:stroke fill markers"
     id="rect843"
     width="478.72537"
     height="478.72537"
     x="5e-07"
     y="5e-07" />
  <!--! Font Awesome Pro 6.2.1 by @fontawesome - https://fontawesome.com License - https://fontawesome.com/license (Commercial License) Copyright 2022 Fonticons, Inc. -->
  <path
     d="m 389.96269,133.96269 c 12.5,-12.5 12.5,-32.8 0,-45.3 -12.5,-12.5 -32.8,-12.5 -45.3,0 l -105.3,105.4 -105.4,-105.3 c -12.5,-12.5 -32.8,-12.5 -45.3,0 -12.5,12.5 -12.5,32.8 0,45.3 l 105.4,105.3 -105.3,105.4 c -12.5,12.5 -12.5,32.8 0,45.3 12.5,12.5 32.8,12.5 45.3,0 l 105.3,-105.4 105.4,105.3 c 12.5,12.5 32.8,12.5 45.3,0 12.5,-12.5 12.5,-32.8 0,-45.3 l -105.4,-105.3 z"
     id="path2" />
</svg>
